{
  "accessors": [
    {
      "bufferView": 2,
      "componentType": 5126,
      "count": 6473,
      "max": [
        4.2231550216674805,
        3.3851029872894287,
        2.37099289894104
      ],
      "min": [
        -3.2499918937683105,
        -2.8532030582427979,
        -3.3797171115875244
      ],
      "type": "VEC3"
    },
    {
      "bufferView": 2,
      "byteOffset": 77676,
      "componentType": 5126,
      "count": 6473,
      "max": [
        0.99996936321258545,
        1,
        1
      ],
      "min": [
        -0.99963349103927612,
        -0.99999678134918213,
        -1
      ],
      "type": "VEC3"
    },
    {
      "bufferView": 1,
      "componentType": 5126,
      "count": 6473,
      "max": [
        1,
        1
      ],
      "min": [
        0,
        0
      ],
      "type": "VEC2"
    },
    {
      "bufferView": 0,
      "componentType": 5125,
      "count": 37440,
      "max": [
        6472
      ],
      "min": [
        0
      ],
      "type": "SCALAR"
    },
    {
      "bufferView": 2,
      "byteOffset": 155352,
      "componentType": 5126,
      "count": 12946,
      "max": [
        2.481956958770752,
        2.2838289737701416,
        2.3335950374603271
      ],
      "min": [
        -2.0619909763336182,
        -0.019835999235510826,
        0.53612798452377319
      ],
      "type": "VEC3"
    },
    {
      "bufferView": 2,
      "byteOffset": 310704,
      "componentType": 5126,
      "count": 12946,
      "max": [
        1,
        1,
        1
      ],
      "min": [
        -1,
        -1,
        -1
      ],
      "type": "VEC3"
    },
    {
      "bufferView": 1,
      "byteOffset": 51784,
      "componentType": 5126,
      "count": 12946,
      "max": [
        1,
        1
      ],
      "min": [
        0,
        0
      ],
      "type": "VEC2"
    },
    {
      "bufferView": 0,
      "byteOffset": 149760,
      "componentType": 5125,
      "count": 74880,
      "max": [
        12945
      ],
      "min": [
        0
      ],
      "type": "SCALAR"
    },
    {
      "bufferView": 2,
      "byteOffset": 466056,
      "componentType": 5126,
      "count": 253,
      "max": [
        0.20925800502300262,
        3.6373240947723389,
        1.9744900465011597
      ],
      "min": [
        -2.4551420211791992,
        1.7973079681396484,
        0.65842300653457642
      ],
      "type": "VEC3"
    },
    {
      "bufferView": 2,
      "byteOffset": 469092,
      "componentType": 5126,
      "count": 253,
      "max": [
        0.99851709604263306,
        0.98466497659683228,
        0.98662102222442627
      ],
      "min": [
        -0.97060352563858032,
        -0.99325710535049438,
        -0.99116164445877075
      ],
      "type": "VEC3"
    },
    {
      "bufferView": 1,
      "byteOffset": 155352,
      "componentType": 5126,
      "count": 253,
      "max": [
        0.875,
        1
      ],
      "min": [
        0.125,
        0
      ],
      "type": "VEC2"
    },
    {
      "bufferView": 0,
      "byteOffset": 449280,
      "componentType": 5125,
      "count": 1344,
      "max": [
        252
      ],
      "min": [
        0
      ],
      "type": "SCALAR"
    },
    {
      "bufferView": 2,
      "byteOffset": 472128,
      "componentType": 5126,
      "count": 125,
      "max": [
        2.9835050106048584,
        1.4919849634170532,
        2.3647720813751221
      ],
      "min": [
        0.10195200145244598,
        0.46137499809265137,
        1.4118679761886597
      ],
      "type": "VEC3"
    },
    {
      "bufferView": 2,
      "byteOffset": 473628,
      "componentType": 5126,
      "count": 125,
      "max": [
        0.98825526237487793,
        0.99918663501739502,
        0.99999809265136719
      ],
      "min": [
        -0.98825526237487793,
        -0.99918663501739502,
        -0.99999809265136719
      ],
      "type": "VEC3"
    },
    {
      "bufferView": 1,
      "byteOffset": 157376,
      "componentType": 5126,
      "count": 125,
      "max": [
        0.875,
        1
      ],
      "min": [
        0.125,
        0
      ],
      "type": "VEC2"
    },
    {
      "bufferView": 0,
      "byteOffset": 454656,
      "componentType": 5125,
      "count": 576,
      "max": [
        124
      ],
      "min": [
        0
      ],
      "type": "SCALAR"
    },
    {
      "bufferView": 2,
      "byteOffset": 475128,
      "componentType": 5126,
      "count": 125,
      "max": [
        4.2895550727844238,
        0.24838599562644958,
        2.6713929176330566
      ],
      "min": [
        -1.7049770355224609,
        -1.4915390014648438,
        1.7929220199584961
      ],
      "type": "VEC3"
    },
    {
      "bufferView": 2,
      "byteOffset": 476628,
      "componentType": 5126,
      "count": 125,
      "max": [
        0.97006934881210327,
        0.99773800373077393,
        1
      ],
      "min": [
        -0.97006934881210327,
        -0.99773800373077393,
        -1
      ],
      "type": "VEC3"
    },
    {
      "bufferView": 1,
      "byteOffset": 158376,
      "componentType": 5126,
      "count": 125,
      "max": [
        0.875,
        1
      ],
      "min": [
        0.125,
        0
      ],
      "type": "VEC2"
    },
    {
      "bufferView": 0,
      "byteOffset": 456960,
      "componentType": 5125,
      "count": 576,
      "max": [
        124
      ],
      "min": [
        0
      ],
      "type": "SCALAR"
    },
    {
      "bufferView": 2,
      "byteOffset": 478128,
      "componentType": 5126,
      "count": 509,
      "max": [
        1.8282510042190552,
        -0.47822099924087524,
        1.9723680019378662
      ],
      "min": [
        -2.2014930248260498,
        -3.252500057220459,
        0.98931300640106201
      ],
      "type": "VEC3"
    },
    {
      "bufferView": 2,
      "byteOffset": 484236,
      "componentType": 5126,
      "count": 509,
      "max": [
        1,
        1,
        0.99997889995574951
      ],
      "min": [
        -1,
        -1,
        -0.99997889995574951
      ],
      "type": "VEC3"
    },
    {
      "bufferView": 1,
      "byteOffset": 159376,
      "componentType": 5126,
      "count": 509,
      "max": [
        0.875,
        1
      ],
      "min": [
        0.125,
        0
      ],
      "type": "VEC2"
    },
    {
      "bufferView": 0,
      "byteOffset": 459264,
      "componentType": 5125,
      "count": 2880,
      "max": [
        508
      ],
      "min": [
        0
      ],
      "type": "SCALAR"
    }
  ],
  "asset": {
    "extras": {
      "author": "chrishopeless (https://sketchfab.com/chris.hapnes)",
      "license": "CC-BY-4.0 (http://creativecommons.org/licenses/by/4.0/)",
      "source": "https://sketchfab.com/3d-models/thonk-6497b296ba354786ba0238b378ca361f",
      "title": "Thonk"
    },
    "generator": "Sketchfab-8.6.0",
    "version": "2.0"
  },
  "bufferViews": [
    {
      "buffer": 0,
      "byteLength": 470784,
      "byteOffset": 0,
      "name": "floatBufferViews",
      "target": 34963
    },
    {
      "buffer": 0,
      "byteLength": 163448,
      "byteOffset": 470784,
      "byteStride": 8,
      "name": "floatBufferViews",
      "target": 34962
    },
    {
      "buffer": 0,
      "byteLength": 490344,
      "byteOffset": 634232,
      "byteStride": 12,
      "name": "floatBufferViews",
      "target": 34962
    }
  ],
  "buffers": [
    {
      "byteLength": 1124576,
      "uri": "scene.bin"
    }
  ],
  "materials": [
    {
      "doubleSided": true,
      "emissiveFactor": [
        0,
        0,
        0
      ],
      "name": "lambert2",
      "pbrMetallicRoughness": {
        "baseColorFactor": [
          0.80000000000000004,
          0.80000000000000004,
          0,
          1
        ],
        "metallicFactor": 0,
        "roughnessFactor": 0.59999999999999998
      }
    },
    {
      "doubleSided": true,
      "emissiveFactor": [
        0,
        0,
        0
      ],
      "name": "lambert3",
      "pbrMetallicRoughness": {
        "baseColorFactor": [
          0.112,
          0.043379000000000001,
          0.012880000000000001,
          1
        ],
        "metallicFactor": 0,
        "roughnessFactor": 0.59999999999999998
      }
    },
    {
      "doubleSided": true,
      "emissiveFactor": [
        0,
        0,
        0
      ],
      "name": "lambert5",
      "pbrMetallicRoughness": {
        "baseColorFactor": [
          0.112,
          0.043379000000000001,
          0.012880000000000001,
          1
        ],
        "metallicFactor": 0,
        "roughnessFactor": 0.59999999999999998
      }
    },
    {
      "doubleSided": true,
      "emissiveFactor": [
        0,
        0,
        0
      ],
      "name": "lambert4",
      "pbrMetallicRoughness": {
        "baseColorFactor": [
          0.112,
          0.043379000000000001,
          0.012880000000000001,
          1
        ],
        "metallicFactor": 0,
        "roughnessFactor": 0.59999999999999998
      }
    },
    {
      "doubleSided": true,
      "emissiveFactor": [
        0,
        0,
        0
      ],
      "name": "lambert6",
      "pbrMetallicRoughness": {
        "baseColorFactor": [
          0.112,
          0.043379000000000001,
          0.012880000000000001,
          1
        ],
        "metallicFactor": 0,
        "roughnessFactor": 0.59999999999999998
      }
    },
    {
      "doubleSided": true,
      "emissiveFactor": [
        0,
        0,
        0
      ],
      "name": "lambert7",
      "pbrMetallicRoughness": {
        "baseColorFactor": [
          0.62719999999999998,
          0.241232,
          0,
          1
        ],
        "metallicFactor": 0,
        "roughnessFactor": 0.59999999999999998
      }
    }
  ],
  "meshes": [
    {
      "name": "lambert2",
      "primitives": [
        {
          "attributes": {
            "NORMAL": 1,
            "POSITION": 0,
            "TEXCOORD_0": 2
          },
          "indices": 3,
          "material": 0,
          "mode": 4
        }
      ]
    },
    {
      "name": "lambert3",
      "primitives": [
        {
          "attributes": {
            "NORMAL": 5,
            "POSITION": 4,
            "TEXCOORD_0": 6
          },
          "indices": 7,
          "material": 1,
          "mode": 4
        }
      ]
    },
    {
      "name": "lambert5",
      "primitives": [
        {
          "attributes": {
            "NORMAL": 9,
            "POSITION": 8,
            "TEXCOORD_0": 10
          },
          "indices": 11,
          "material": 2,
          "mode": 4
        }
      ]
    },
    {
      "name": "lambert4",
      "primitives": [
        {
          "attributes": {
            "NORMAL": 13,
            "POSITION": 12,
            "TEXCOORD_0": 14
          },
          "indices": 15,
          "material": 3,
          "mode": 4
        }
      ]
    },
    {
      "name": "lambert6",
      "primitives": [
        {
          "attributes": {
            "NORMAL": 17,
            "POSITION": 16,
            "TEXCOORD_0": 18
          },
          "indices": 19,
          "material": 4,
          "mode": 4
        }
      ]
    },
    {
      "name": "lambert7",
      "primitives": [
        {
          "attributes": {
            "NORMAL": 21,
            "POSITION": 20,
            "TEXCOORD_0": 22
          },
          "indices": 23,
          "material": 5,
          "mode": 4
        }
      ]
    }
  ],
  "nodes": [
    {
      "children": [
        1
      ],
      "name": "RootNode (gltf orientation matrix)",
      "rotation": [
        -0.70710678118654746,
        -0,
        -0,
        0.70710678118654757
      ]
    },
    {
      "children": [
        2
      ],
      "name": "RootNode (model correction matrix)"
    },
    {
      "children": [
        3
      ],
      "matrix": [
        1,
        0,
        0,
        0,
        0,
        -4.3711390063094768e-08,
        0.999999999999999,
        0,
        0,
        -0.999999999999999,
        -4.3711390063094768e-08,
        0,
        0,
        0,
        0,
        1
      ],
      "name": "Collada visual scene group"
    },
    {
      "children": [
        4,
        5,
        6,
        7,
        8,
        9
      ],
      "matrix": [
        1,
        0,
        0,
        0,
        0,
        1,
        0,
        0,
        0,
        0,
        1,
        0,
        0,
        4.1204349999999996,
        0,
        1
      ],
      "name": "pSphere9"
    },
    {
      "mesh": 0,
      "name": "lambert2"
    },
    {
      "mesh": 1,
      "name": "lambert3"
    },
    {
      "mesh": 2,
      "name": "lambert5"
    },
    {
      "mesh": 3,
      "name": "lambert4"
    },
    {
      "mesh": 4,
      "name": "lambert6"
    },
    {
      "mesh": 5,
      "name": "lambert7"
    }
  ],
  "scene": 0,
  "scenes": [
    {
      "name": "OSG_Scene",
      "nodes": [
        0
      ]
    }
  ]
}

